<?xml version="1.0" encoding="iso-8859-1"?>
<!-- Generator: Adobe Illustrator 25.1.0, SVG Export Plug-In . SVG Version: 6.00 Build 0)  -->
<svg version="1.1" xmlns="http://www.w3.org/2000/svg" xmlns:xlink="http://www.w3.org/1999/xlink" x="0px" y="0px"
	 viewBox="0 0 1080 321.085" style="enable-background:new 0 0 1080 321.085;" xml:space="preserve">
<g id="Layer_1">
	<g>
		<g>
			<g>
				<g>
					<path d="M149.001,72.807h27.512v157.759h-27.512v-14.095c-3.612,5.036-8.161,9.134-13.646,12.291
						c-5.489,3.157-11.84,4.736-19.056,4.736c-8.195,0-15.863-1.542-23.006-4.624c-7.143-3.08-13.438-7.347-18.887-12.798
						c-5.453-5.451-9.718-11.746-12.8-18.889c-3.084-7.141-4.624-14.808-4.624-23.004c0-8.193,1.54-15.861,4.624-23.006
						c3.082-7.141,7.347-13.436,12.8-18.887c5.449-5.451,11.744-9.716,18.887-12.8c7.143-3.082,14.81-4.624,23.006-4.624
						c7.216,0,13.567,1.561,19.056,4.68c5.485,3.12,10.034,7.237,13.646,12.349V72.807z M116.636,206.997
						c5.865,0,11.052-1.465,15.562-4.398c4.51-2.932,8.041-6.896,10.601-11.896c2.552-4.998,3.832-10.504,3.832-16.52
						c0-6.091-1.28-11.632-3.832-16.634c-2.56-4.998-6.11-8.964-10.659-11.896c-4.549-2.932-9.716-4.398-15.504-4.398
						c-5.79,0-11.05,1.486-15.787,4.454c-4.736,2.97-8.533,6.935-11.389,11.896c-2.858,4.963-4.285,10.487-4.285,16.578
						c0,6.089,1.426,11.615,4.285,16.576c2.856,4.963,6.671,8.908,11.447,11.84C105.679,205.533,110.923,206.997,116.636,206.997z"
						/>
					<path d="M216.545,100.998c-3.986,0-7.367-1.334-10.15-4.003c-2.779-2.668-4.171-6.033-4.171-10.092
						c0-3.984,1.392-7.33,4.171-10.036c2.783-2.706,6.164-4.059,10.15-4.059s7.347,1.353,10.092,4.059
						c2.745,2.706,4.117,6.052,4.117,10.036c0,4.059-1.372,7.424-4.117,10.092C223.892,99.664,220.531,100.998,216.545,100.998z
						 M202.676,117.801h27.516v112.765h-27.516V117.801z"/>
					<path d="M263.004,230.566V117.801h27.516v11.389c3.304-3.683,6.819-6.671,10.543-8.966c3.72-2.292,7.949-3.439,12.686-3.439
						c7.667,0,14.675,1.598,21.028,4.793c6.353,3.196,11.823,7.723,16.41,13.588c4.583-5.865,10.073-10.393,16.464-13.588
						c6.387-3.196,13.38-4.793,20.974-4.793c9.699,0,18.361,2.407,25.993,7.216c7.629,4.813,13.661,11.26,18.098,19.34
						c4.433,8.084,6.653,17.011,6.653,26.783v60.442h-27.516v-60.442c0-4.811-0.979-9.153-2.934-13.025
						c-1.954-3.87-4.68-6.971-8.172-9.304c-3.496-2.328-7.54-3.494-12.123-3.494c-4.587,0-8.666,1.166-12.235,3.494
						c-3.573,2.332-6.372,5.433-8.404,9.304c-2.028,3.872-3.041,8.215-3.041,13.025v60.442h-27.516v-60.442
						c0-4.811-1.033-9.153-3.103-13.025c-2.066-3.87-4.888-6.971-8.457-9.304c-3.57-2.328-7.609-3.494-12.12-3.494
						c-4.364,0-8.307,1.203-11.842,3.608c-3.535,2.407-6.314,5.601-8.346,9.585c-2.028,3.986-3.041,8.344-3.041,13.081v59.991
						H263.004z"/>
					<path d="M796.585,172.265v58.3H769.07v-57.849c0-5.788-1.203-11.069-3.608-15.843c-2.405-4.772-5.732-8.589-9.98-11.445
						c-4.248-2.856-9.151-4.287-14.714-4.287c-5.412,0-10.111,1.43-14.097,4.287c-3.986,2.856-7.047,6.673-9.19,11.445
						c-2.143,4.774-3.215,10.055-3.215,15.843v57.849h-27.512V117.801h27.512v13.305c3.758-5.034,8.249-9.038,13.476-12.01
						c5.223-2.968,11.144-4.454,17.759-4.454c10.377,0,19.378,2.614,27.011,7.839c7.629,5.225,13.53,12.197,17.701,20.918
						C794.388,152.12,796.512,161.742,796.585,172.265z"/>
					<path d="M855.784,232.595c-5.863-0.378-11.518-1.561-16.969-3.552c-5.451-1.991-10.281-4.716-14.49-8.176
						c-4.213-3.456-7.444-7.592-9.699-12.403l23.229-9.924c0.902,1.505,2.367,3.101,4.398,4.793c2.031,1.69,4.452,3.101,7.274,4.229
						c2.818,1.128,5.921,1.69,9.302,1.69c2.856,0,5.582-0.393,8.176-1.183c2.594-0.79,4.699-2.01,6.314-3.664
						s2.425-3.797,2.425-6.428c0-2.781-0.956-4.944-2.876-6.484c-1.916-1.54-4.321-2.708-7.216-3.496
						c-2.895-0.79-5.694-1.523-8.4-2.199c-7.143-1.428-13.777-3.645-19.906-6.653c-6.125-3.005-11.048-6.896-14.772-11.67
						c-3.72-4.774-5.582-10.545-5.582-17.31c0-7.442,1.954-13.87,5.863-19.284c3.909-5.412,9.059-9.585,15.45-12.517
						c6.387-2.932,13.268-4.398,20.635-4.398c8.947,0,17.162,1.862,24.64,5.582c7.482,3.722,13.399,8.966,17.763,15.732
						l-21.764,12.856c-1.056-1.804-2.521-3.477-4.398-5.019c-1.881-1.54-4.024-2.818-6.43-3.834
						c-2.405-1.014-4.923-1.596-7.552-1.748c-3.385-0.148-6.468,0.152-9.248,0.902c-2.783,0.754-5.019,2.03-6.711,3.834
						c-1.692,1.806-2.536,4.211-2.536,7.218c0,2.858,1.129,4.98,3.385,6.372c2.255,1.392,4.977,2.463,8.172,3.213
						c3.196,0.752,6.26,1.579,9.194,2.481c6.611,2.182,12.833,4.849,18.661,8.006c5.825,3.157,10.504,7.031,14.039,11.615
						c3.531,4.587,5.223,10.075,5.073,16.464c0,7.293-2.178,13.663-6.538,19.114c-4.364,5.451-9.98,9.604-16.861,12.461
						C870.952,232.069,863.601,233.197,855.784,232.595z"/>
					<path d="M993.809,117.801h29.208l-61.685,169.148h-29.204l20.411-56.383l-40.595-112.765h30.106l24.247,75.102L993.809,117.801
						z"/>
				</g>
				<polygon style="fill:#044DA4;" points="661.949,89.596 620.417,89.596 620.417,48.064 				"/>
				<g>
					<circle style="fill:#029FE6;" cx="562.703" cy="171.576" r="79.673"/>
					<rect x="562.13" y="181.873" style="fill:#029FE6;" width="50.081" height="14.377"/>
				</g>
			</g>
			<circle style="fill:#044DA4;" cx="461.861" cy="106.454" r="11.849"/>
			<circle style="fill:#044DA4;" cx="662.97" cy="106.454" r="11.849"/>
			<circle style="fill:#044DA4;" cx="461.861" cy="239.943" r="11.849"/>
			<circle style="fill:#044DA4;" cx="662.97" cy="239.943" r="11.849"/>
		</g>
		<g>
			<defs>
				<circle id="SVGID_1_" cx="562.703" cy="171.576" r="79.673"/>
			</defs>
			<clipPath id="SVGID_2_">
				<use xlink:href="#SVGID_1_"  style="overflow:visible;"/>
			</clipPath>
			<path style="clip-path:url(#SVGID_2_);fill:#FFFFFF;" d="M639.671,133.323c0,0-39.562,66.63-81.791,74.624
				c-13.558,2.566-16.688-6.991-14.883-18.041c0.678-3.383,1.58-6.991,2.706-11.05c40.819,2.706,83.665-55.475,47.133-64.946
				c-31.347-8.344-61.338,17.139-74.645,48.484c-0.961,2.333-1.872,4.709-2.73,7.1l-23.947,2.082v7.549l20.904-0.103
				c-0.638,2.298-1.205,4.582-1.667,6.826c-6.314,30.894,18.071,52.034,44.2,46.003c50.869-11.741,86.815-92.368,86.815-92.368
				L639.671,133.323z M585.619,143.677c-6.765,15.785-25.935,21.198-35.179,22.776C571.187,118.195,595.542,120.676,585.619,143.677
				z"/>
		</g>
	</g>
	<polyline style="fill:none;stroke:#044DA4;stroke-width:10;stroke-miterlimit:10;" points="461.861,98.447 461.861,46.431 
		622.805,46.431 662.97,86.532 662.97,104.064 	"/>
	<polyline style="fill:none;stroke:#044DA4;stroke-width:10;stroke-miterlimit:10;" points="461.861,239.943 461.861,281.255 
		662.97,281.255 662.97,237.851 	"/>
</g>
<g id="Layer_3" style="display:none;">
	<rect style="display:inline;fill:#FFFFFF;" width="56.983" height="56.983"/>
	<rect y="264.103" style="display:inline;fill:#FFFFFF;" width="56.983" height="56.983"/>
	<rect x="1023.017" style="display:inline;fill:#FFFFFF;" width="56.983" height="56.983"/>
	<rect x="1023.017" y="264.103" style="display:inline;fill:#FFFFFF;" width="56.983" height="56.983"/>
</g>
</svg>
